<svg xmlns="http://www.w3.org/2000/svg" width="36" height="35.386" cursor="move" style="max-height:none;transition:transform 200ms ease-in-out" transform="matrix(.3 0 0 .3 -.062 -24.055)" transform-origin="50% 50%" viewBox="34.026 40.715 283.322 283.424"><g fill="#27292b"><path d="M170.478 323.754c-.676-.307-2.519-.553-4.055-.553-3.01-.061-12.655-1.474-17.14-2.58-1.536-.369-4.3-.86-6.143-1.167-5.59-.799-11.734-2.457-16.28-4.362-2.334-.983-4.608-1.782-5.038-1.782-.737 0-13.331-6.328-16.464-8.294-1.966-1.167-7.311-4.485-9.031-5.529-1.229-.737-9.952-7.433-11.058-8.478-.43-.369-2.826-2.519-5.283-4.669-5.652-4.915-7.986-7.311-11.304-11.304-1.413-1.782-2.765-3.317-2.949-3.502-.676-.553-7.986-10.505-7.986-10.812 0-.184-1.167-2.027-2.58-4.116-2.826-4.177-10.935-19.843-10.935-21.133 0-.43-.246-1.29-.553-1.904-1.659-3.133-3.133-7.065-3.133-8.355 0-.86-.246-1.659-.553-1.843s-.676-1.106-.86-2.027c-.86-4.239-1.843-8.724-2.334-11.242-1.044-4.608-1.72-9.706-2.457-18.43-.86-10.075.061-24.143 2.457-37.474.307-1.843.799-4.669 1.044-6.328.246-1.597.676-3.072.922-3.256.307-.184.553-1.106.553-2.089s.307-1.966.614-2.15c.369-.184.614-.86.614-1.474 0-.983.737-3.072 3.072-8.969.307-.676.922-2.334 1.413-3.686 1.29-3.502 7.126-14.621 10.137-19.536 7.065-11.304 16.771-22.669 26.846-31.515 4.3-3.747 14.13-11.304 14.683-11.304.184 0 1.474-.799 2.949-1.782 4.546-3.01 18.491-10.505 19.659-10.505.246 0 1.843-.553 3.44-1.29 4.485-1.966 5.16-2.273 7.802-3.072 1.352-.369 2.949-.922 3.502-1.229.614-.307 1.782-.553 2.642-.553s2.027-.246 2.642-.553c.553-.307 2.703-.922 4.73-1.29 2.027-.43 4.485-.983 5.468-1.29s2.765-.553 3.993-.553c1.29 0 2.58-.307 2.887-.614.737-.737 36.184-.491 40.485.246 7.065 1.167 16.096 3.01 17.201 3.44.676.246 3.317 1.106 5.836 1.904 2.519.737 4.853 1.597 5.16 1.904.369.246.983.491 1.474.491 1.167 0 9.645 3.932 15.666 7.311 5.713 3.256 7.065 3.993 9.461 5.652 1.413.983 2.703 1.782 2.887 1.782.553 0 7.618 5.406 13.577 10.444 7.065 5.898 10.935 9.891 17.078 17.509 2.765 3.379 5.16 6.266 5.345 6.451 2.273 2.089 14.13 22.423 14.13 24.266 0 .184.553 1.536 1.229 3.072 2.58 5.775 3.502 8.048 4.3 10.751.43 1.536 1.044 3.01 1.352 3.317.246.369.491 1.229.491 1.966 0 .799.246 1.536.553 1.72.246.184.676 1.536.86 2.949.246 1.474.676 3.87 1.044 5.406 1.413 6.205 1.904 9.215 2.519 15.051.614 6.696.184 32.437-.676 35.939-.307 1.167-.86 3.932-1.29 6.143-.799 4.546-1.843 8.662-3.317 13.515-.614 1.843-1.597 5.16-2.273 7.372-1.474 4.976-4.3 11.181-9.952 21.747-2.58 4.853-3.072 5.59-10.014 14.928-6.451 8.662-18.491 21.072-26.908 27.584-3.133 2.396-13.024 9.031-16.096 10.751-5.836 3.317-13.884 7.311-14.683 7.311-.491 0-1.352.246-1.966.553-2.58 1.413-6.942 3.133-7.802 3.133-.491 0-1.413.246-2.027.553-1.659.86-7.495 2.642-10.567 3.195-1.536.246-3.993.799-5.529 1.106-10.198 2.457-30.717 4.362-33.481 3.133m10.628-21.686c.553-.369.737-5.16.737-20.273 0-10.874.246-20.089.491-20.457s1.536-1.413 2.887-2.273c3.932-2.642 10.075-8.969 13.27-13.761 1.659-2.457 3.01-4.669 3.01-4.976 0-.676 1.843-1.536 2.334-1.044.184.184 0 3.379-.43 7.188-.737 7.126-1.044 51.051-.307 52.157.43.676 5.775.061 6.635-.737.369-.307 1.229-.553 1.966-.553.799 0 1.597-.246 1.782-.614.184-.307.86-.614 1.474-.614s1.904-.369 2.887-.86 3.195-1.474 4.853-2.212c5.898-2.58 7.372-3.379 11.365-5.775 8.908-5.345 17.631-11.795 22.915-16.833 6.635-6.266 12.778-13.208 15.788-17.631.491-.799 2.089-3.072 3.502-5.099 2.642-3.747 10.689-18.86 11.549-21.625.246-.86.86-2.519 1.352-3.686 1.72-4.055 1.966-4.608 2.334-6.451.184-.983.614-3.195.922-4.915.307-1.659.86-4.3 1.229-5.836 1.597-6.266 2.027-11.304 2.027-21.809 0-12.041-.676-19.536-2.273-25.065-.553-1.966-.983-4.177-.983-4.853 0-1.229-.737-3.87-1.843-6.942-.246-.676-.86-2.457-1.29-3.993s-1.29-3.993-1.966-5.529-1.597-3.747-2.089-4.915c-1.904-4.423-6.328-12.532-7.065-12.778-.246-.123-.491-.553-.491-.922-.061-.43-.86-1.72-1.843-2.887-1.044-1.167-1.843-2.457-1.843-2.887s-.246-.799-.553-.799-.676-.369-.799-.86c-.184-.983-7.188-8.908-11.857-13.577-8.232-8.232-15.051-13.638-23.775-18.799-6.696-3.993-18.307-9.768-19.72-9.768-.43 0-1.044-.246-1.413-.491-.983-.922-10.874-3.993-14.375-4.485-1.843-.246-5.59-.922-8.294-1.413-3.256-.614-8.724-.922-15.973-.922-10.198 0-13.024.307-25.188 2.334-3.44.614-9.829 2.273-11.672 3.072-.676.307-3.317 1.167-5.836 1.966-10.751 3.379-27.154 13.331-38.396 23.283-10.075 8.908-19.966 21.379-25.925 32.56-1.352 2.519-2.703 5.16-3.072 5.836-1.167 2.027-3.072 6.635-3.87 9.215-.43 1.352-.983 2.949-1.29 3.502-.307.614-.553 1.597-.553 2.212s-.246 1.352-.553 1.72c-1.352 1.536-2.949 9.276-4.73 23.283-.983 7.925-.86 20.887.369 27.645.369 2.027.86 5.345 1.167 7.372.43 3.256 2.826 11.304 4.3 14.744.307.676.86 2.212 1.29 3.379 2.15 6.266 7.802 17.57 11.857 23.652 2.027 3.072 3.87 5.652 4.055 5.836s1.352 1.536 2.519 3.072c3.195 4.177 5.959 7.249 11.058 12.287 4.792 4.792 14.744 12.901 15.85 12.901.369 0 .737.246.86.491.123.307 1.966 1.597 4.177 2.887s4.976 2.949 6.143 3.625c2.027 1.229 4.239 2.334 10.628 5.222 1.413.676 4.546 1.843 6.881 2.58 4.423 1.352 5.529 1.782 8.478 2.949.922.369 2.887.676 4.3.676 1.474 0 2.887.246 3.256.553.307.307 2.089.676 3.932.86s4.485.614 5.836.983c2.765.676 16.771.614 18-.123"/><path d="M137.304 259.741c-5.468-.614-8.171-1.29-13.208-3.072s-6.02-2.334-11.058-5.652c-8.724-5.713-18.737-17.816-22.055-26.478-.799-2.027-1.659-4.239-1.904-4.915-.983-2.273-1.782-5.529-2.519-10.137-.983-6.082-.922-56.949.061-63.768.799-5.406.799-5.406 4.239-12.471 2.703-5.652 8.724-12.962 12.102-14.683.983-.491 2.765-1.536 3.932-2.334 2.642-1.782 5.038-2.826 8.601-3.809 1.536-.43 3.379-.983 4.177-1.29s4.669-.553 8.601-.553c6.389 0 7.863.246 12.962 1.904 10.935 3.563 20.457 11.857 24.573 21.44.799 1.843 1.904 4.362 2.396 5.529 1.536 3.502 1.966 13.638 1.782 41.16-.184 19.659-.43 26.539-1.044 27.952-1.966 4.669-3.317 7.126-4.976 9.092-1.72 2.089-7.126 6.082-10.382 7.618-1.966.983-8.601 2.027-12.717 2.027-3.932 0-4.3-1.106-1.106-3.072 3.686-2.273 6.942-7.003 8.232-11.98.922-3.44.922-63.092 0-66.348-1.352-4.853-7.126-11.672-11.549-13.638-2.765-1.229-13.761-1.29-16.096-.061-2.765 1.474-7.741 5.406-8.785 6.881-2.58 3.932-3.379 6.143-3.993 10.321-.614 4.546-.369 55.904.246 60.082 1.474 9.092 9.584 19.843 19.044 25.249 4.423 2.519 6.02 3.195 8.539 3.809 3.195.799 14.56.799 18.184 0 9.154-1.966 19.352-10.628 24.082-20.457 4.3-9.031 4.177-7.556 4.177-41.16.061-31.577.123-32.56 2.765-40.239.614-1.659 1.597-3.809 2.212-4.73.676-.86 1.167-1.782 1.167-2.027 0-.491 4.362-5.836 6.451-7.986 1.474-1.536 7.986-5.898 10.137-6.819.86-.369 2.212-.983 3.072-1.352 7.925-3.44 21.932-4.423 28.321-1.904 1.843.676 3.809 1.536 4.362 1.843.614.307 1.413.553 1.843.553.737 0 3.195 1.72 9.706 6.758 2.457 1.904 7.003 7.802 9.154 11.918 2.334 4.485 3.87 10.382 4.73 17.693.369 3.502.369 3.563-1.352 4.239-1.229.43-4.485.553-10.075.307-9.092-.43-9.829-.737-9.829-4.3 0-6.266-5.16-14.253-11.672-18.123-2.457-1.413-3.379-1.597-8.662-1.597-5.038 0-6.266.246-8.908 1.536-5.16 2.642-8.785 6.881-11.734 13.823-.246.676-.676 14.498-.922 30.717-.43 30.717-.799 36.614-2.58 41.775-5.345 15.481-16.464 28.137-30.655 34.956-7.679 3.625-8.785 4.055-10.874 4.055-.983 0-1.904.246-2.089.553-.369.553-4.546 1.106-10.812 1.536-1.843.123-5.59 0-8.294-.369"/></g></svg>